<svg width="16" height="16" viewBox="0 0 16 16" fill="none" xmlns="http://www.w3.org/2000/svg">
<path d="M8.9375 13.7969V8.32812H10.7812L11.0469 6.1875H8.9375V4.82812C8.9375 4.52604 9.0026 4.27865 9.13281 4.08594C9.26302 3.89323 9.54688 3.79688 9.98438 3.79688H11.1094V1.89062C10.8698 1.85938 10.6146 1.83594 10.3438 1.82031C10.0729 1.80469 9.80208 1.79688 9.53125 1.79688C9.52083 1.79688 9.51042 1.79688 9.5 1.79688C9.48958 1.79688 9.47917 1.79688 9.46875 1.79688C8.65625 1.79688 7.99479 2.03906 7.48438 2.52344C6.97396 3.00781 6.71875 3.70833 6.71875 4.625V6.1875H4.89062V8.32812H6.71875V13.7969H8.9375Z" fill="#96C6C6"/>
</svg>
