<svg width="16" height="16" viewBox="0 0 16 16" fill="none" xmlns="http://www.w3.org/2000/svg">
<path d="M7.99999 1.14062C7.26041 1.14062 6.5677 1.27604 5.92187 1.54688C5.27603 1.82812 4.71093 2.21094 4.22655 2.69531C3.74218 3.17969 3.36457 3.74479 3.09374 4.39062C2.81249 5.03646 2.67186 5.72917 2.67186 6.46875C2.66145 7.54167 2.92707 8.55208 3.46874 9.5C3.99999 10.4583 4.59374 11.2995 5.24999 12.0234C5.90624 12.7474 6.51561 13.3281 7.07812 13.7656C7.64062 14.1927 7.94791 14.4271 7.99999 14.4688C7.99999 14.4688 8.28124 14.2552 8.84374 13.8281C9.39582 13.3906 10.0052 12.8073 10.6719 12.0781C11.3385 11.349 11.9531 10.5 12.5156 9.53125C13.0677 8.5625 13.3385 7.54167 13.3281 6.46875C13.3281 5.72917 13.1875 5.03646 12.9062 4.39062C12.6354 3.74479 12.2578 3.17969 11.7734 2.69531C11.2891 2.21094 10.7239 1.82812 10.0781 1.54688C9.43228 1.27604 8.73957 1.14062 7.99999 1.14062ZM7.99999 9.14062C7.26041 9.14062 6.6302 8.88021 6.10937 8.35938C5.58853 7.83854 5.32812 7.20833 5.32812 6.46875C5.32812 5.72917 5.58853 5.09896 6.10937 4.57812C6.6302 4.05729 7.26041 3.79688 7.99999 3.79688C8.73957 3.79688 9.36978 4.05729 9.89062 4.57812C10.4114 5.09896 10.6719 5.72917 10.6719 6.46875C10.6719 7.20833 10.4114 7.83854 9.89062 8.35938C9.36978 8.88021 8.73957 9.14062 7.99999 9.14062Z" fill="#96C6C6"/>
</svg>
