<svg width="16" height="16" viewBox="0 0 16 16" fill="none" xmlns="http://www.w3.org/2000/svg">
<path d="M8 4.71875C7.57292 4.71875 7.17188 4.79688 6.79688 4.95312C6.42188 5.11979 6.09635 5.34375 5.82031 5.625C5.54427 5.90625 5.32292 6.22917 5.15625 6.59375C5 6.96875 4.92188 7.36979 4.92188 7.79688C4.92188 8.22396 5 8.625 5.15625 9C5.32292 9.375 5.54427 9.70312 5.82031 9.98438C6.09635 10.2656 6.42188 10.4844 6.79688 10.6406C7.17188 10.8073 7.57292 10.8906 8 10.8906C8.42708 10.8906 8.82812 10.8073 9.20312 10.6406C9.57812 10.4844 9.90365 10.2656 10.1797 9.98438C10.4557 9.70312 10.6771 9.375 10.8438 9C11 8.625 11.0781 8.22396 11.0781 7.79688C11.0781 7.36979 11 6.96875 10.8438 6.59375C10.6771 6.22917 10.4557 5.90625 10.1797 5.625C9.90365 5.34375 9.57812 5.11979 9.20312 4.95312C8.82812 4.79688 8.42708 4.71875 8 4.71875ZM8 9.79688C7.44792 9.79688 6.97656 9.60156 6.58594 9.21094C6.19531 8.82031 6 8.34896 6 7.79688C6 7.24479 6.19531 6.77344 6.58594 6.38281C6.97656 5.99219 7.44792 5.79688 8 5.79688C8.55208 5.79688 9.02344 5.99219 9.41406 6.38281C9.80469 6.77344 10 7.24479 10 7.79688C10 8.34896 9.80469 8.82031 9.41406 9.21094C9.02344 9.60156 8.55208 9.79688 8 9.79688ZM11.9219 4.60938C11.9219 4.80729 11.8516 4.97656 11.7109 5.11719C11.5703 5.25781 11.401 5.32812 11.2031 5.32812C11.0052 5.32812 10.8359 5.25781 10.6953 5.11719C10.5547 4.97656 10.4844 4.80729 10.4844 4.60938C10.4844 4.41146 10.5547 4.24219 10.6953 4.10156C10.8359 3.96094 11.0052 3.89062 11.2031 3.89062C11.401 3.89062 11.5703 3.96094 11.7109 4.10156C11.8516 4.24219 11.9219 4.41146 11.9219 4.60938ZM13.6875 3.875C13.5312 3.46875 13.3021 3.11458 13 2.8125C12.6979 2.51042 12.349 2.28125 11.9531 2.125H11.9375C11.7188 2.04167 11.487 1.97396 11.2422 1.92188C10.9974 1.86979 10.7448 1.84375 10.4844 1.84375H10.4688C10.1562 1.82292 9.86979 1.8099 9.60938 1.80469C9.34896 1.79948 8.8125 1.79688 8 1.79688C7.1875 1.79688 6.65104 1.79948 6.39062 1.80469C6.13021 1.8099 5.84375 1.82292 5.53125 1.84375C5.27083 1.84375 5.01562 1.86979 4.76562 1.92188C4.51562 1.97396 4.27604 2.04167 4.04688 2.125H4.07812C3.67188 2.28125 3.31771 2.51042 3.01562 2.8125C2.71354 3.11458 2.48438 3.46354 2.32812 3.85938L2.3125 3.875C2.22917 4.09375 2.16406 4.32552 2.11719 4.57031C2.07031 4.8151 2.04167 5.06771 2.03125 5.32812C2.02083 5.65104 2.01302 5.9401 2.00781 6.19531C2.0026 6.45052 2 6.98438 2 7.79688C2 8.61979 2.0026 9.15885 2.00781 9.41406C2.01302 9.66927 2.02083 9.95833 2.03125 10.2812C2.04167 10.5312 2.07031 10.7786 2.11719 11.0234C2.16406 11.2682 2.22917 11.5052 2.3125 11.7344C2.47917 12.1406 2.71354 12.4948 3.01562 12.7969C3.31771 13.099 3.66146 13.3281 4.04688 13.4844H4.07812C4.28646 13.5781 4.51302 13.651 4.75781 13.7031C5.0026 13.7552 5.25521 13.7865 5.51562 13.7969H5.53125C5.85417 13.8073 6.14323 13.8151 6.39844 13.8203C6.65365 13.8255 7.1875 13.8281 8 13.8281C8.8125 13.8281 9.34896 13.8255 9.60938 13.8203C9.86979 13.8151 10.1615 13.8073 10.4844 13.7969C10.7448 13.7865 11 13.7578 11.25 13.7109C11.5 13.6641 11.7396 13.5938 11.9688 13.5L11.9375 13.5156C12.3438 13.349 12.6979 13.1172 13 12.8203C13.3021 12.5234 13.5312 12.1771 13.6875 11.7812V11.75C13.7812 11.5208 13.8516 11.2839 13.8984 11.0391C13.9453 10.7943 13.9688 10.5469 13.9688 10.2969C13.9792 9.97396 13.987 9.6849 13.9922 9.42969C13.9974 9.17448 14 8.64062 14 7.82812C14 7.01562 14 6.47917 14 6.21875C14 5.95833 13.9896 5.67188 13.9688 5.35938C13.9688 5.08854 13.9427 4.82552 13.8906 4.57031C13.8385 4.3151 13.7656 4.07292 13.6719 3.84375L13.6875 3.875ZM12.875 10.2344C12.875 10.4323 12.8568 10.6276 12.8203 10.8203C12.7839 11.013 12.7292 11.1979 12.6562 11.375L12.6719 11.3594C12.5677 11.6198 12.4167 11.849 12.2188 12.0469C12.0208 12.2448 11.7969 12.3906 11.5469 12.4844L11.5312 12.5C11.3646 12.5625 11.1875 12.612 11 12.6484C10.8125 12.6849 10.6198 12.7031 10.4219 12.7031C10.099 12.7135 9.8151 12.7214 9.57031 12.7266C9.32552 12.7318 8.79688 12.7344 7.98438 12.7344C7.17188 12.7344 6.64323 12.7344 6.39844 12.7344C6.15365 12.7344 5.86979 12.724 5.54688 12.7031C5.33854 12.7031 5.14062 12.6849 4.95312 12.6484C4.76562 12.612 4.58333 12.5573 4.40625 12.4844L4.42188 12.5C4.16146 12.3958 3.93229 12.2448 3.73438 12.0469C3.53646 11.849 3.38542 11.625 3.28125 11.375V11.3594C3.21875 11.1927 3.16927 11.0156 3.13281 10.8281C3.09635 10.6406 3.07812 10.4479 3.07812 10.25V10.2344C3.05729 9.92188 3.04688 9.64062 3.04688 9.39062C3.04688 9.14062 3.04688 8.61458 3.04688 7.8125C3.04688 7 3.04688 6.47135 3.04688 6.22656C3.04688 5.98177 3.05729 5.69792 3.07812 5.375C3.07812 5.16667 3.09635 4.96615 3.13281 4.77344C3.16927 4.58073 3.22396 4.39583 3.29688 4.21875L3.28125 4.25C3.38542 3.97917 3.53646 3.74479 3.73438 3.54688C3.93229 3.34896 4.16146 3.20312 4.42188 3.10938C4.58854 3.04688 4.76562 2.9974 4.95312 2.96094C5.14062 2.92448 5.33854 2.90104 5.54688 2.89062C5.85938 2.88021 6.14062 2.8724 6.39062 2.86719C6.64062 2.86198 7.17188 2.85938 7.98438 2.85938C8.79688 2.85938 9.32552 2.86198 9.57031 2.86719C9.8151 2.8724 10.099 2.88021 10.4219 2.89062C10.6198 2.90104 10.8125 2.92448 11 2.96094C11.1875 2.9974 11.3698 3.04688 11.5469 3.10938H11.5312C11.7917 3.21354 12.0208 3.36198 12.2188 3.55469C12.4167 3.7474 12.5677 3.97396 12.6719 4.23438V4.25C12.7344 4.40625 12.7839 4.58073 12.8203 4.77344C12.8568 4.96615 12.875 5.16146 12.875 5.35938C12.8854 5.67188 12.8932 5.95312 12.8984 6.20312C12.9036 6.45312 12.9062 6.98438 12.9062 7.79688C12.9062 8.60938 12.9062 9.13802 12.9062 9.38281C12.9062 9.6276 12.901 9.91146 12.8906 10.2344H12.875Z" fill="#96C6C6"/>
</svg>
