<svg width="16" height="16" viewBox="0 0 16 16" fill="none" xmlns="http://www.w3.org/2000/svg">
<path d="M13.0625 4.26562C12.3854 4.10938 11.8151 3.77344 11.3516 3.25781C10.888 2.74219 10.6198 2.13542 10.5469 1.4375V1.42188V1.14062H8.25V10.25C8.25 10.7812 8.0625 11.2344 7.6875 11.6094C7.3125 11.9844 6.85417 12.1719 6.3125 12.1719C6 12.1719 5.71094 12.1042 5.44531 11.9688C5.17969 11.8333 4.95833 11.6458 4.78125 11.4062C4.65625 11.25 4.5599 11.0729 4.49219 10.875C4.42448 10.6771 4.39062 10.4635 4.39062 10.2344C4.39062 9.70312 4.57812 9.25 4.95312 8.875C5.32812 8.5 5.78125 8.3125 6.3125 8.3125C6.3125 8.3125 6.31771 8.3125 6.32812 8.3125H6.3125C6.32292 8.3125 6.32812 8.3125 6.32812 8.3125C6.43229 8.3125 6.53385 8.32031 6.63281 8.33594C6.73177 8.35156 6.82812 8.375 6.92188 8.40625H6.90625V6.0625C6.82292 6.05208 6.73438 6.04427 6.64062 6.03906C6.54688 6.03385 6.44792 6.03125 6.34375 6.03125C6.32292 6.03125 6.30469 6.03125 6.28906 6.03125C6.27344 6.03125 6.25521 6.03125 6.23438 6.03125C5.67188 6.05208 5.14062 6.17188 4.64062 6.39062C4.14062 6.61979 3.70573 6.92448 3.33594 7.30469C2.96615 7.6849 2.67188 8.13021 2.45312 8.64062C2.23438 9.14062 2.125 9.67708 2.125 10.25C2.125 10.8229 2.23438 11.362 2.45312 11.8672C2.67188 12.3724 2.96354 12.8177 3.32812 13.2031C3.71354 13.5885 4.16667 13.8958 4.6875 14.125C5.20833 14.3542 5.76042 14.4688 6.34375 14.4688C6.92708 14.4688 7.47396 14.3542 7.98438 14.125C8.50521 13.9062 8.95573 13.6068 9.33594 13.2266C9.71615 12.8464 10.0156 12.401 10.2344 11.8906C10.4635 11.3802 10.5781 10.8333 10.5781 10.25V5.57812C11.0156 5.90104 11.5026 6.15104 12.0391 6.32812C12.5755 6.50521 13.1406 6.59375 13.7344 6.59375C13.7344 6.59375 13.737 6.59375 13.7422 6.59375C13.7474 6.59375 13.75 6.59375 13.75 6.59375V4.32812C13.75 4.32812 13.7448 4.32812 13.7344 4.32812C13.6198 4.32812 13.5078 4.32292 13.3984 4.3125C13.2891 4.30208 13.1771 4.28125 13.0625 4.25L13.0938 4.26562H13.0625Z" fill="#96C6C6"/>
</svg>
