<svg width="38" height="38" viewBox="0 0 38 38" fill="none" xmlns="http://www.w3.org/2000/svg">
<path d="M1.61252 18.6493C1.2386 18.6493 1.05164 18.439 1.05164 18.0183C1.19186 13.9986 2.54733 10.423 5.11806 7.29138C8.24967 3.45866 12.281 1.29692 17.2122 0.806145C22.1433 0.315369 26.5252 1.63579 30.3579 4.7674V1.33197C30.3579 0.911308 30.5566 0.700977 30.9538 0.700977C31.3511 0.700977 31.5498 0.911308 31.5498 1.33197V6.0995C31.5498 6.0995 31.5498 6.12287 31.5498 6.16961C31.5498 6.21635 31.5381 6.26309 31.5147 6.30983C31.4914 6.35657 31.4563 6.40331 31.4096 6.45005C31.4096 6.45005 31.4096 6.47342 31.4096 6.52017C31.3628 6.56691 31.3161 6.59028 31.2693 6.59028C31.2693 6.59028 31.2577 6.60196 31.2343 6.62533C31.2109 6.6487 31.1992 6.66039 31.1992 6.66039C31.1525 6.66039 31.1291 6.66039 31.1291 6.66039C31.0824 6.66039 31.0356 6.66039 30.9889 6.66039H26.1513C25.7773 6.66039 25.5904 6.46174 25.5904 6.06445C25.5904 5.66715 25.7773 5.46851 26.1513 5.46851H29.3764C26.4785 3.22496 23.2066 2.03308 19.5609 1.89286C14.9336 1.75264 10.9372 3.26002 7.57193 6.415C4.20662 9.56998 2.43048 13.4611 2.24352 18.0884C2.24352 18.4624 2.05656 18.6493 1.68263 18.6493H1.61252ZM6.45016 29.7969C6.87082 30.2176 7.29149 30.6149 7.71215 30.9888C7.9926 31.2692 7.9926 31.5497 7.71215 31.8301C7.47845 32.1573 7.19801 32.1807 6.87082 31.9002C6.45016 31.4796 6.0295 31.0355 5.60883 30.5681C5.32839 30.2877 5.34007 30.0073 5.64389 29.7268C5.9477 29.4464 6.21646 29.4697 6.45016 29.7969ZM13.6015 34.4943C13.9754 34.6346 14.1039 34.8916 13.9871 35.2656C13.8702 35.6395 13.6248 35.7797 13.2509 35.6862C12.6433 35.4525 12.059 35.2188 11.4981 34.9851C11.1242 34.7981 11.0307 34.5177 11.2177 34.1438C11.4046 33.7699 11.6617 33.6764 11.9889 33.8633C12.5498 34.097 13.0873 34.3074 13.6015 34.4943ZM10.4465 33.0921C10.8204 33.2791 10.9022 33.5478 10.6919 33.8984C10.4815 34.2489 10.2128 34.3074 9.88558 34.0737C9.3247 33.7932 8.81055 33.466 8.34315 33.0921H8.27304C7.9926 32.8117 7.96922 32.5196 8.20293 32.2157C8.43663 31.9119 8.71707 31.8769 9.04426 32.1106C9.51166 32.4378 9.97906 32.7649 10.4465 33.0921ZM5.3985 28.4648C5.6322 28.7453 5.58546 29.0023 5.25828 29.236C4.93109 29.4697 4.65065 29.4464 4.41695 29.1659C4.04303 28.6518 3.71584 28.1143 3.4354 27.5534C3.24844 27.2262 3.31855 26.9574 3.64573 26.7471C3.97291 26.5368 4.25336 26.6186 4.48706 26.9925C4.7675 27.5066 5.07132 27.9974 5.3985 28.4648ZM3.71584 25.6604C3.71584 26.0811 3.52888 26.2914 3.15496 26.2914C2.87451 26.2914 2.68755 26.1745 2.59407 25.9408C2.36037 25.3799 2.12667 24.7957 1.89296 24.1881C1.89296 24.1881 1.89296 24.1647 1.89296 24.118C1.79948 23.744 1.9397 23.4986 2.31363 23.3818C2.68755 23.2649 2.94462 23.4168 3.08485 23.8375C3.22507 24.3517 3.41203 24.8892 3.64573 25.4501C3.69247 25.4968 3.71584 25.5669 3.71584 25.6604ZM2.17341 22.856C1.98645 22.9027 1.82285 22.8793 1.68263 22.7858C1.54241 22.6924 1.4723 22.5521 1.4723 22.3652C1.33208 21.7576 1.21523 21.1499 1.12175 20.5423C1.12175 20.1684 1.32039 19.958 1.71769 19.9113C2.11498 19.8646 2.31363 20.0282 2.31363 20.4021C2.40711 21.0097 2.50059 21.594 2.59407 22.1549C2.68755 22.5288 2.54733 22.7625 2.17341 22.856ZM35.2657 22.6456C35.3591 22.2717 35.6045 22.1315 36.0018 22.225C36.3991 22.3184 36.551 22.5755 36.4575 22.9962C36.2706 23.5571 36.0836 24.1413 35.8967 24.7489C35.7564 25.1229 35.4994 25.2397 35.1254 25.0995C34.7515 24.9593 34.6347 24.7022 34.7749 24.3283C34.9618 23.7674 35.1254 23.2065 35.2657 22.6456ZM16.9668 35.2656C17.3407 35.3123 17.5277 35.5226 17.5277 35.8965C17.5277 36.2705 17.3173 36.4574 16.8967 36.4574C16.8967 36.4574 16.8733 36.4574 16.8265 36.4574C16.2189 36.4107 15.6113 36.3172 15.0037 36.177C14.6297 36.0835 14.4895 35.8381 14.583 35.4408C14.6765 35.0435 14.9102 34.8916 15.2841 34.9851C15.845 35.1253 16.4059 35.2188 16.9668 35.2656ZM34.0738 25.9408C34.2607 25.5669 34.5295 25.4734 34.8801 25.6604C35.2306 25.8473 35.3358 26.1044 35.1955 26.4316C34.9151 26.9925 34.6113 27.5534 34.2841 28.1143C34.0504 28.3947 33.77 28.4414 33.4428 28.2545C33.1156 28.0675 33.0455 27.8104 33.2324 27.4833C33.5596 26.9691 33.8401 26.455 34.0738 25.9408ZM32.2509 28.8855C32.5313 28.5583 32.8235 28.5232 33.1273 28.7803C33.4311 29.0374 33.4661 29.3061 33.2324 29.5866C32.8585 30.1007 32.4612 30.5681 32.0406 30.9888C31.7601 31.316 31.468 31.3394 31.1642 31.0589C30.8604 30.7785 30.8487 30.498 31.1291 30.2176C31.5498 29.7969 31.9237 29.3529 32.2509 28.8855ZM35.7564 19.2102C35.7564 18.8363 35.9551 18.661 36.3524 18.6844C36.7497 18.7077 36.9483 18.9064 36.9483 19.2803C36.9016 19.8879 36.8548 20.5189 36.8081 21.1733C36.7614 21.5005 36.551 21.6641 36.1771 21.6641C36.1304 21.6641 36.107 21.6641 36.107 21.6641C35.6863 21.6173 35.5227 21.3836 35.6162 20.963C35.663 20.4021 35.7097 19.8412 35.7564 19.2803V19.2102ZM29.8671 31.4095C30.1943 31.129 30.4864 31.1407 30.7435 31.4445C31.0006 31.7483 30.9655 32.0405 30.6384 32.3209C30.1709 32.6948 29.6802 33.0688 29.166 33.4427C28.8388 33.6764 28.5701 33.6296 28.3598 33.3025C28.1494 32.9753 28.2078 32.6948 28.535 32.4611C29.0024 32.1339 29.4465 31.7834 29.8671 31.4095ZM23.8376 34.7047C24.2115 34.6112 24.4686 34.728 24.6088 35.0552C24.7023 35.4291 24.5621 35.6862 24.1882 35.8264C23.5805 36.0134 22.9729 36.1536 22.3653 36.2471C22.3653 36.2938 22.3419 36.3172 22.2952 36.3172C21.968 36.3172 21.7577 36.1536 21.6642 35.8264C21.6174 35.4058 21.781 35.1721 22.155 35.1253C22.7158 34.9851 23.2767 34.8449 23.8376 34.7047ZM20.4723 35.3357C20.893 35.3357 21.115 35.5343 21.1384 35.9316C21.1617 36.3289 20.9631 36.5275 20.5424 36.5275C20.0283 36.5743 19.5141 36.5977 19 36.5977H18.7195C18.2989 36.5977 18.0885 36.3873 18.0885 35.9667C18.1353 35.5927 18.3456 35.4058 18.7195 35.4058H19C19.5141 35.4058 20.0049 35.3824 20.4723 35.3357ZM27.0627 33.3726C27.3899 33.1856 27.647 33.2674 27.8339 33.618C28.0209 33.9685 27.9508 34.2373 27.6236 34.4242C27.0627 34.7047 26.5018 34.9617 25.9409 35.1954C25.567 35.3357 25.3099 35.2305 25.1697 34.8799C25.0295 34.5294 25.123 34.2606 25.4502 34.0737C26.011 33.8867 26.5486 33.653 27.0627 33.3726ZM10.131 9.78031C10.131 9.78031 10.7444 9.16685 11.9714 7.93991C13.1983 6.71297 15.5412 6.0995 19 6.0995C22.4588 6.0995 25.4151 7.32644 27.869 9.78031C30.3229 12.2342 31.5498 15.1905 31.5498 18.6493C31.5498 22.1081 30.3229 25.0644 27.869 27.5183C25.4151 29.9722 22.4588 31.1991 19 31.1991C15.5412 31.1991 12.5848 29.9722 10.131 27.5183C7.6771 25.0644 6.45016 22.1081 6.45016 18.6493C6.45016 15.1905 7.6771 12.2342 10.131 9.78031ZM28.6051 19.2803C28.1845 19.2803 27.9741 19.07 27.9741 18.6493C27.9741 18.2287 28.1845 18.0183 28.6051 18.0183H30.3579C30.1709 15.1204 29.0609 12.6549 27.0277 10.6216C24.9944 8.58843 22.5289 7.47835 19.631 7.29138V9.04415C19.631 9.46482 19.4206 9.67515 19 9.67515C18.5793 9.67515 18.369 9.46482 18.369 9.04415V7.29138C15.4711 7.47835 13.0055 8.58843 10.9723 10.6216C8.93909 12.6549 7.829 15.1204 7.64204 18.0183H9.39481C9.81547 18.0183 10.0258 18.2287 10.0258 18.6493C10.0258 19.07 9.81547 19.2803 9.39481 19.2803H7.64204C7.829 22.1782 8.93909 24.6438 10.9723 26.677C13.0055 28.7102 15.4711 29.8203 18.369 30.0073V28.2545C18.369 27.8338 18.5793 27.6235 19 27.6235C19.4206 27.6235 19.631 27.8338 19.631 28.2545V30.0073C22.5289 29.8203 24.9944 28.7102 27.0277 26.677C29.0609 24.6438 30.1709 22.1782 30.3579 19.2803H28.6051ZM19.631 16.9667C20.1451 17.1536 20.4957 17.5275 20.6826 18.0884C20.8696 18.5558 20.8579 19.0116 20.6476 19.4556C20.4372 19.8996 20.0984 20.2034 19.631 20.367C19.1636 20.5306 18.6962 20.5072 18.2288 20.2969C17.7614 20.0866 17.4575 19.7477 17.3173 19.2803H14.2324C13.8118 19.2803 13.6015 19.07 13.6015 18.6493C13.6015 18.2287 13.8118 18.0183 14.2324 18.0183H17.3173C17.5043 17.5042 17.8548 17.1536 18.369 16.9667V11.498C18.369 11.0774 18.5793 10.867 19 10.867C19.4206 10.867 19.631 11.0774 19.631 11.498V16.9667ZM18.369 18.6493C18.369 18.6493 18.369 18.7545 18.369 18.9648C18.369 19.1751 18.5793 19.2803 19 19.2803C19.4206 19.2803 19.631 19.07 19.631 18.6493C19.631 18.2287 19.4206 18.0183 19 18.0183C18.5793 18.0183 18.369 18.2287 18.369 18.6493Z" fill="#96C6C6"/>
</svg>
