<svg width="25" height="25" viewBox="0 0 25 25" fill="none" xmlns="http://www.w3.org/2000/svg">
<path d="M18.727 12.0384C18.604 12.0384 18.4887 12.0153 18.381 11.9692C18.2734 11.9231 18.1888 11.8462 18.1273 11.7386C18.0658 11.631 18.0351 11.5156 18.0351 11.3926V9.73213C18.0351 9.54763 18.1043 9.38619 18.2427 9.24781C18.381 9.10944 18.5425 9.04025 18.727 9.04025H20.3875C20.572 9.04025 20.7257 9.10944 20.8487 9.24781C20.9717 9.38619 21.0332 9.54763 21.0332 9.73213V11.3926C21.0332 11.5771 20.9717 11.7309 20.8487 11.8539C20.7257 11.9769 20.572 12.0384 20.3875 12.0384H18.727ZM18.727 9.73213V11.3465H20.3414V9.73213H18.727ZM18.727 16.4203C18.604 16.4203 18.4887 16.3973 18.381 16.3511C18.2734 16.305 18.1888 16.2281 18.1273 16.1205C18.0658 16.0129 18.0351 15.8976 18.0351 15.7746V14.114C18.0351 13.9295 18.1043 13.7681 18.2427 13.6297C18.381 13.4914 18.5425 13.4222 18.727 13.4222H20.3875C20.572 13.4222 20.7257 13.4914 20.8487 13.6297C20.9717 13.7681 21.0332 13.9295 21.0332 14.114V15.7746C21.0332 15.9591 20.9717 16.1128 20.8487 16.2358C20.7257 16.3588 20.572 16.4203 20.3875 16.4203H18.727ZM18.727 14.114V15.7284H20.3414V14.114H18.727ZM14.0222 12.0384C13.8992 12.0384 13.7839 12.0153 13.6762 11.9692C13.5686 11.9231 13.484 11.8462 13.4225 11.7386C13.361 11.631 13.3303 11.5156 13.3303 11.3926V9.73213C13.3303 9.54763 13.3995 9.38619 13.5379 9.24781C13.6762 9.10944 13.8377 9.04025 14.0222 9.04025H15.6827C15.8672 9.04025 16.0209 9.10944 16.1439 9.24781C16.2669 9.38619 16.3284 9.54763 16.3284 9.73213V11.3926C16.3284 11.5771 16.2669 11.7309 16.1439 11.8539C16.0209 11.9769 15.8672 12.0384 15.6827 12.0384H14.0222ZM14.0222 9.73213V11.3465H15.6366V9.73213H14.0222ZM6.27309 17.6196C6.45759 17.6196 6.61903 17.6888 6.75741 17.8271C6.89579 17.9655 6.96497 18.127 6.96497 18.3115V19.9259C6.96497 20.1104 6.89579 20.2718 6.75741 20.4102C6.61903 20.5486 6.45759 20.6177 6.27309 20.6177H4.61258C4.42807 20.6177 4.27432 20.5486 4.15132 20.4102C4.02832 20.2718 3.96682 20.1104 3.96682 19.9259V18.3115C3.96682 18.127 4.02832 17.9655 4.15132 17.8271C4.27432 17.6888 4.42807 17.6196 4.61258 17.6196H6.27309ZM6.27309 19.9259V18.3115H4.6587V19.9259H6.27309ZM6.27309 9.04025C6.45759 9.04025 6.61903 9.10944 6.75741 9.24781C6.89579 9.38619 6.96497 9.54763 6.96497 9.73213V11.3926C6.96497 11.5771 6.89579 11.7309 6.75741 11.8539C6.61903 11.9769 6.45759 12.0384 6.27309 12.0384H4.61258C4.42807 12.0384 4.27432 11.9769 4.15132 11.8539C4.02832 11.7309 3.96682 11.5771 3.96682 11.3926V9.73213C3.96682 9.54763 4.02832 9.38619 4.15132 9.24781C4.27432 9.10944 4.42807 9.04025 4.61258 9.04025H6.27309ZM6.27309 11.3465V9.73213H4.6587V11.3465H6.27309ZM14.0222 16.3281C13.8377 16.3281 13.6762 16.2666 13.5379 16.1436C13.3995 16.0206 13.3303 15.8668 13.3303 15.6823V14.0218C13.3303 13.8988 13.361 13.7835 13.4225 13.6759C13.484 13.5682 13.5686 13.4837 13.6762 13.4222C13.7839 13.3607 13.8992 13.3299 14.0222 13.3299H15.6827C15.8057 13.3299 15.921 13.3607 16.0286 13.4222C16.1363 13.4837 16.2131 13.5682 16.2593 13.6759C16.3054 13.7835 16.3284 13.8988 16.3284 14.0218V15.6823C16.3284 15.8668 16.2669 16.0206 16.1439 16.1436C16.0209 16.2666 15.8672 16.3281 15.6827 16.3281H14.0222ZM14.0222 14.0218V15.6362H15.6366V14.0218H14.0222ZM21.4022 2.02918C21.8635 2.02918 22.2633 2.19831 22.6015 2.53656C22.9398 2.87481 23.1089 3.28994 23.1089 3.78195V22.3244C23.1089 22.8164 22.9398 23.2315 22.6015 23.5698C22.2633 23.908 21.8635 24.0771 21.4022 24.0771H3.59782C3.13656 24.0771 2.73681 23.908 2.39855 23.5698C2.0603 23.2315 1.89117 22.8164 1.89117 22.3244V3.78195C1.89117 3.28994 2.0603 2.87481 2.39855 2.53656C2.73681 2.19831 3.13656 2.02918 3.59782 2.02918H5.07383V1.5218C5.07383 1.21429 5.18146 0.960606 5.39671 0.760729C5.61196 0.560852 5.85796 0.460913 6.13472 0.460913H6.27309C6.5806 0.460913 6.83429 0.560852 7.03416 0.760729C7.23404 0.960606 7.33398 1.21429 7.33398 1.5218V2.02918H17.6661V1.5218C17.6661 1.21429 17.766 0.960606 17.9659 0.760729C18.1658 0.560852 18.4195 0.460913 18.727 0.460913H18.8653C19.1421 0.460913 19.3881 0.560852 19.6034 0.760729C19.8186 0.960606 19.9262 1.21429 19.9262 1.5218V2.02918H21.4022ZM18.358 1.5218V2.02918H19.2343V1.5218C19.2343 1.27579 19.1113 1.15279 18.8653 1.15279H18.727C18.481 1.15279 18.358 1.27579 18.358 1.5218ZM5.76571 1.5218V2.02918H6.6421V1.5218C6.6421 1.27579 6.5191 1.15279 6.27309 1.15279H6.13472C5.88871 1.15279 5.76571 1.27579 5.76571 1.5218ZM22.417 22.3244V18.5882L18.8653 22.186C18.5271 22.5243 18.112 22.6934 17.62 22.6934H3.59782C3.22881 22.6934 2.89056 22.5704 2.58306 22.3244C2.58306 22.6319 2.68299 22.8856 2.88287 23.0855C3.08275 23.2853 3.32106 23.3853 3.59782 23.3853H21.4022C21.679 23.3853 21.9173 23.2853 22.1172 23.0855C22.3171 22.8856 22.417 22.6319 22.417 22.3244ZM18.4963 21.5402L22.0019 18.0808C21.8789 18.1116 21.7559 18.127 21.6329 18.127H19.3266C19.1113 18.127 18.9268 18.2038 18.7731 18.3576C18.6193 18.5113 18.5425 18.6958 18.5425 18.9111V21.2174C18.5425 21.3404 18.5271 21.448 18.4963 21.5402ZM22.417 6.9646V3.78195C22.417 3.47444 22.3171 3.22075 22.1172 3.02088C21.9173 2.821 21.679 2.72106 21.4022 2.72106H18.358V3.73582C18.358 3.98182 18.481 4.10482 18.727 4.10482C18.9422 4.10482 19.0498 4.22014 19.0498 4.45077C19.0498 4.68139 18.9422 4.79671 18.727 4.79671C18.4195 4.79671 18.1658 4.69677 17.9659 4.49689C17.766 4.29701 17.6661 4.04332 17.6661 3.73582V2.72106H5.76571V3.73582C5.76571 3.98182 5.88871 4.10482 6.13472 4.10482C6.38072 4.10482 6.50372 4.22014 6.50372 4.45077C6.50372 4.68139 6.38072 4.79671 6.13472 4.79671C5.85796 4.79671 5.61196 4.69677 5.39671 4.49689C5.18146 4.29701 5.07383 4.04332 5.07383 3.73582V2.72106H3.59782C3.41331 2.72106 3.24419 2.76719 3.09044 2.85944C2.93668 2.95169 2.81368 3.08238 2.72143 3.2515C2.62918 3.42063 2.58306 3.59744 2.58306 3.78195V6.9646H6.31922C6.53447 6.9646 6.6421 7.07992 6.6421 7.31054C6.6421 7.54117 6.53447 7.65648 6.31922 7.65648H2.58306V20.9406C2.58306 21.2481 2.68299 21.5018 2.88287 21.7017C3.08275 21.9016 3.32106 22.0015 3.59782 22.0015H17.0665C17.2817 22.0015 17.4662 21.9246 17.62 21.7709C17.7737 21.6171 17.8506 21.4326 17.8506 21.2174V18.9111C17.8506 18.5113 17.9966 18.1654 18.2888 17.8733C18.5809 17.5811 18.9268 17.4351 19.3266 17.4351H21.6329C21.8481 17.4351 22.0326 17.3582 22.1864 17.2045C22.3401 17.0507 22.417 16.8662 22.417 16.6509V7.65648H7.70298C7.45698 7.65648 7.33398 7.54117 7.33398 7.31054C7.33398 7.07992 7.45698 6.9646 7.70298 6.9646H22.417ZM6.27309 13.3299C6.45759 13.3299 6.61903 13.3991 6.75741 13.5375C6.89579 13.6759 6.96497 13.8373 6.96497 14.0218V15.6823C6.96497 15.8668 6.89579 16.0206 6.75741 16.1436C6.61903 16.2666 6.45759 16.3281 6.27309 16.3281H4.61258C4.42807 16.3281 4.27432 16.2666 4.15132 16.1436C4.02832 16.0206 3.96682 15.8668 3.96682 15.6823V14.0218C3.96682 13.8988 3.99757 13.7835 4.05907 13.6759C4.12057 13.5682 4.19745 13.4837 4.2897 13.4222C4.38195 13.3607 4.48958 13.3299 4.61258 13.3299H6.27309ZM6.27309 15.6362V14.0218H4.6587V15.6362H6.27309ZM9.31737 12.0384C9.13287 12.0384 8.97912 11.9769 8.85612 11.8539C8.73312 11.7309 8.67162 11.5771 8.67162 11.3926V9.73213C8.67162 9.54763 8.73312 9.38619 8.85612 9.24781C8.97912 9.10944 9.13287 9.04025 9.31737 9.04025H10.9779C11.1624 9.04025 11.3238 9.10944 11.4622 9.24781C11.6006 9.38619 11.6698 9.54763 11.6698 9.73213V11.3926C11.6698 11.5771 11.6006 11.7309 11.4622 11.8539C11.3238 11.9769 11.1624 12.0384 10.9779 12.0384H9.31737ZM9.3635 9.73213V11.3465H10.9779V9.73213H9.3635ZM14.0222 19.9259H15.6366V18.3115H14.0222V18.7727C14.0222 18.988 13.9069 19.0956 13.6762 19.0956C13.4456 19.0956 13.3303 18.988 13.3303 18.7727V18.3115C13.3303 18.127 13.3995 17.9655 13.5379 17.8271C13.6762 17.6888 13.8377 17.6196 14.0222 17.6196H15.6827C15.8672 17.6196 16.0209 17.6888 16.1439 17.8271C16.2669 17.9655 16.3284 18.127 16.3284 18.3115V19.9259C16.3284 20.1104 16.2669 20.2718 16.1439 20.4102C16.0209 20.5486 15.8672 20.6177 15.6827 20.6177H14.0222C13.8377 20.6177 13.6762 20.5486 13.5379 20.4102C13.3995 20.2718 13.3303 20.1104 13.3303 19.9259C13.3303 19.7106 13.4533 19.603 13.6993 19.603C13.9145 19.603 14.0222 19.7106 14.0222 19.9259ZM9.31737 16.3281C9.13287 16.3281 8.97912 16.2666 8.85612 16.1436C8.73312 16.0206 8.67162 15.8668 8.67162 15.6823V14.0218C8.67162 13.8988 8.69468 13.7835 8.74081 13.6759C8.78693 13.5682 8.86381 13.4837 8.97143 13.4222C9.07906 13.3607 9.19437 13.3299 9.31737 13.3299H10.9779C11.1624 13.3299 11.3238 13.3991 11.4622 13.5375C11.6006 13.6759 11.6698 13.8373 11.6698 14.0218V15.6823C11.6698 15.8668 11.6006 16.0206 11.4622 16.1436C11.3238 16.2666 11.1624 16.3281 10.9779 16.3281H9.31737ZM9.3635 14.0218V15.6362H10.9779V14.0218H9.3635ZM9.31737 20.6177C9.13287 20.6177 8.97912 20.5486 8.85612 20.4102C8.73312 20.2718 8.67162 20.1104 8.67162 19.9259V18.3115C8.67162 18.127 8.73312 17.9655 8.85612 17.8271C8.97912 17.6888 9.13287 17.6196 9.31737 17.6196H10.9779C11.1624 17.6196 11.3238 17.6888 11.4622 17.8271C11.6006 17.9655 11.6698 18.127 11.6698 18.3115V19.9259C11.6698 20.1104 11.6006 20.2718 11.4622 20.4102C11.3238 20.5486 11.1624 20.6177 10.9779 20.6177H9.31737ZM9.3635 18.3115V19.9259H10.9779V18.3115H9.3635Z" fill="#96C6C6"/>
</svg>
