<svg width="45" height="45" viewBox="0 0 45 45" fill="none" xmlns="http://www.w3.org/2000/svg">
<path d="M39.2712 0.830544C40.4889 0.830544 41.5406 1.27335 42.4262 2.15896C43.3118 3.04457 43.7546 4.09623 43.7546 5.31394V11.4578C43.7546 11.956 43.5332 12.2051 43.0904 12.2051H36.1162V33.3767C36.1162 34.9818 35.5489 36.3518 34.4142 37.4864C33.2795 38.6211 31.9096 39.1885 30.3044 39.1885C30.2491 39.1885 30.1937 39.1885 30.1383 39.1885H29.8893H6.72507C5.2306 39.0778 3.9437 38.4689 2.86436 37.3619C1.78503 36.2549 1.24536 34.9265 1.24536 33.3767V30.0556C1.24536 29.5575 1.46676 29.3084 1.90957 29.3084H7.30625L7.4723 5.14789C7.4723 3.93018 7.88743 2.90619 8.71769 2.07593C9.54794 1.24567 10.5719 0.830544 11.7896 0.830544H39.2712ZM7.05717 37.8601H26.5682C26.5129 37.7494 26.4299 37.6663 26.3192 37.611L26.1531 37.4449C25.0461 36.3379 24.4926 34.9818 24.4926 33.3767V30.7198H2.6568V33.3767C2.6568 34.5944 3.08577 35.646 3.9437 36.5317C4.80163 37.4173 5.83946 37.8601 7.05717 37.8601ZM34.7048 33.3767V5.39697C34.7048 4.2346 35.1476 3.18294 36.0332 2.24198H11.7896C10.9594 2.24198 10.2537 2.51873 9.67248 3.07224C9.0913 3.62575 8.80071 4.31763 8.80071 5.14789L8.63466 29.3084H25.1568C25.5996 29.3084 25.821 29.5575 25.821 30.0556V33.3767C25.821 33.9855 25.9455 34.5667 26.1946 35.1202C26.4437 35.6737 26.762 36.1442 27.1494 36.5317C27.5369 36.9191 28.0074 37.2374 28.5609 37.4864C29.1144 37.7355 29.6955 37.8601 30.3044 37.8601C31.5221 37.8601 32.5599 37.4173 33.4179 36.5317C34.2758 35.646 34.7048 34.5944 34.7048 33.3767ZM42.3431 5.39697C42.3431 4.51136 42.0526 3.76412 41.4714 3.15527C40.8902 2.54641 40.1568 2.24198 39.2712 2.24198C38.3856 2.24198 37.6383 2.54641 37.0295 3.15527C36.4206 3.76412 36.1162 4.51136 36.1162 5.39697V10.7936H42.3431V5.39697ZM17.4354 17.7678C16.9926 17.4911 16.619 17.1313 16.3145 16.6885C16.0101 16.2457 15.761 15.7614 15.5673 15.2355C15.3736 14.7097 15.2767 14.1977 15.2767 13.6995V8.80102C15.2767 8.52427 15.3874 8.30287 15.6088 8.13682L21.0055 5.47999C21.2269 5.42464 21.4483 5.42464 21.6697 5.47999L27.0664 8.13682C27.2878 8.30287 27.3985 8.52427 27.3985 8.80102V13.6995C27.3985 14.4191 27.1909 15.1802 26.7758 15.9828C26.3607 16.7853 25.8487 17.3804 25.2398 17.7678L21.7527 20.1756C21.476 20.397 21.1992 20.397 20.9225 20.1756L17.4354 17.7678ZM16.6882 9.21615V13.6995C16.6882 13.9763 16.7158 14.2531 16.7712 14.5298C16.8265 14.8066 16.9234 15.0695 17.0618 15.3186C17.2002 15.5676 17.3662 15.8167 17.5599 16.0658C17.7537 16.3149 17.9612 16.4948 18.1826 16.6055L21.3376 18.7641L24.4926 16.6055C24.9354 16.3287 25.2952 15.8997 25.5719 15.3186C25.8487 14.7374 25.9871 14.1977 25.9871 13.6995V9.21615L21.3376 6.89143L16.6882 9.21615ZM20.1753 14.6959L18.7638 13.3674C18.4317 13.0353 18.4317 12.7032 18.7638 12.3711C19.0959 12.039 19.428 12.039 19.7601 12.3711L20.6734 13.2844L22.9151 11.0427C23.2472 10.7106 23.5793 10.7106 23.9114 11.0427C24.2435 11.3748 24.2435 11.7069 23.9114 12.039L21.1716 14.7789C21.0055 14.8896 20.8256 14.9449 20.6319 14.9449C20.4382 14.9449 20.286 14.8619 20.1753 14.6959ZM29.8893 22.1682C30.3321 22.1682 30.5535 22.4034 30.5535 22.8739C30.5535 23.3444 30.3321 23.5796 29.8893 23.5796H13.3671C12.9243 23.5796 12.7029 23.3444 12.7029 22.8739C12.7029 22.4034 12.9243 22.1682 13.3671 22.1682H29.8893ZM29.8893 25.3232C30.3321 25.3232 30.5535 25.5584 30.5535 26.0289C30.5535 26.4994 30.3321 26.7346 29.8893 26.7346H13.3671C12.9243 26.7346 12.7029 26.4994 12.7029 26.0289C12.7029 25.5584 12.9243 25.3232 13.3671 25.3232H29.8893Z" fill="#96C6C6"/>
</svg>
