<svg width="45" height="45" viewBox="0 0 45 45" fill="none" xmlns="http://www.w3.org/2000/svg">
<path d="M42.3431 9.79741C42.7306 9.79741 43.0627 9.93579 43.3395 10.2125C43.6162 10.4893 43.7546 10.8214 43.7546 11.2088C43.7546 12.0391 43.464 12.7448 42.8828 13.326C42.3016 13.9072 41.5959 14.1978 40.7657 14.1978H40.5166C40.5166 14.2531 40.5166 14.3085 40.5166 14.3638V14.4469C40.5166 15.2771 40.226 15.9828 39.6448 16.564C39.0636 17.1452 38.3579 17.4358 37.5276 17.4358H37.2786C37.2786 17.4911 37.2786 17.5465 37.2786 17.6018C37.2786 18.4321 36.988 19.1378 36.4068 19.719C35.8256 20.3002 35.1199 20.5908 34.2896 20.5908H26.8173C26.4299 20.5908 26.2361 20.3832 26.2361 19.9681C26.2361 19.5529 26.4299 19.3454 26.8173 19.3454H34.2896C34.7878 19.3454 35.2029 19.1793 35.535 18.8472C35.8671 18.5151 36.0332 18.1 36.0332 17.6018C36.0332 17.4911 35.9778 17.4358 35.8671 17.4358H34.1236C34.1236 17.4358 34.0959 17.4358 34.0406 17.4358C33.5978 17.4358 33.3764 17.2282 33.3764 16.8131C33.3764 16.398 33.5978 16.1904 34.0406 16.1904H35.8671C35.9225 16.1904 35.9502 16.1904 35.9502 16.1904H37.5276C38.0258 16.1904 38.4409 16.0105 38.773 15.6507C39.1051 15.291 39.2712 14.8897 39.2712 14.4469V14.3638C39.2712 14.2531 39.2158 14.1978 39.1051 14.1978H27.6476C27.2601 14.1978 27.0664 13.9902 27.0664 13.5751C27.0664 13.16 27.2601 12.9524 27.6476 12.9524H38.8561C38.9114 12.9524 38.9391 12.9524 38.9391 12.9524H40.7657C41.0424 12.9524 41.3192 12.8694 41.5959 12.7033C41.8727 12.5373 42.0941 12.3297 42.2601 12.0806C42.4262 11.8315 42.5092 11.541 42.5092 11.2088C42.5092 11.0981 42.4538 11.0428 42.3431 11.0428H25.3229C25.3782 11.3195 25.4059 11.6517 25.4059 12.0391L25.2398 16.1904H31.6328C32.0203 16.1904 32.214 16.398 32.214 16.8131C32.214 17.2282 32.0203 17.4358 31.6328 17.4358H25.1568L24.6586 27.5649H27.7306C28.2288 27.5649 28.6577 27.385 29.0175 27.0253C29.3773 26.6655 29.5572 26.2365 29.5572 25.7384C29.5572 25.2402 29.3773 24.8112 29.0175 24.4515C28.6577 24.0917 28.2288 23.9118 27.7306 23.9118C27.3431 23.9118 27.1494 23.7042 27.1494 23.2891C27.1494 22.874 27.3431 22.6664 27.7306 22.6664C28.2841 22.6664 28.7961 22.8048 29.2666 23.0815C29.7371 23.3583 30.1107 23.7319 30.3874 24.2024C30.6642 24.6729 30.8026 25.1849 30.8026 25.7384C30.8026 26.2919 30.6642 26.8039 30.3874 27.2743C30.1107 27.7448 29.7371 28.1184 29.2666 28.3952C28.7961 28.6719 28.2841 28.8103 27.7306 28.8103H24.5756L24.4096 32.3804H26.2361C26.7343 32.3804 27.1494 32.2005 27.4815 31.8408C27.8136 31.481 27.9797 31.052 27.9797 30.5539C27.9797 30.4432 27.9797 30.3325 27.9797 30.2218C27.9243 29.8343 28.0904 29.5991 28.4778 29.516C28.8653 29.433 29.1144 29.6129 29.2251 30.0557C29.2251 30.2218 29.2251 30.3878 29.2251 30.5539C29.2251 30.9967 29.142 31.398 28.976 31.7577C28.8099 32.1175 28.6024 32.4358 28.3533 32.7125C28.1042 32.9893 27.786 33.2107 27.3985 33.3767C27.011 33.5428 26.6236 33.6258 26.2361 33.6258H24.4096L23.9944 41.9284C23.9391 42.3159 23.773 42.648 23.4963 42.9247C23.2195 43.2015 22.8874 43.3398 22.5 43.3398C22.1125 43.3398 21.7804 43.2015 21.5037 42.9247C21.2269 42.648 21.0609 42.3159 21.0055 41.9284L20.5904 33.6258H20.4243C19.9262 33.6258 19.4972 33.8057 19.1374 34.1655C18.7776 34.5253 18.5978 34.9542 18.5978 35.4524C18.5978 36.2826 19.0129 36.8362 19.8431 37.1129C20.2306 37.279 20.3551 37.5557 20.2168 37.9432C20.0784 38.3306 19.8155 38.4413 19.428 38.2753C18.0443 37.8325 17.3524 36.8915 17.3524 35.4524C17.3524 34.8989 17.4907 34.3869 17.7675 33.9164C18.0443 33.4459 18.4179 33.0723 18.8883 32.7956C19.3588 32.5188 19.8708 32.3804 20.4243 32.3804H20.5904L20.4243 28.8103H18.7638C18.5978 28.8103 18.4179 28.838 18.2241 28.8933C18.0304 28.9487 17.8644 29.0317 17.726 29.1424C17.5876 29.2531 17.4631 29.3777 17.3524 29.516C17.2417 29.6544 17.1586 29.8205 17.1033 30.0142C17.0479 30.2079 17.0203 30.3878 17.0203 30.5539C17.0203 31.1074 17.214 31.5502 17.6014 31.8823C17.8782 32.159 17.8782 32.4635 17.6014 32.7956C17.3247 33.1277 17.0479 33.1553 16.7712 32.8786C16.107 32.2697 15.7749 31.4948 15.7749 30.5539C15.7749 29.7236 16.0655 29.0179 16.6467 28.4367C17.2278 27.8555 17.9336 27.5649 18.7638 27.5649H20.3413L19.8431 17.4358H13.8653C13.4778 17.4358 13.2841 17.2282 13.2841 16.8131C13.2841 16.398 13.4778 16.1904 13.8653 16.1904H19.7601L19.5941 12.0391C19.5941 11.6517 19.6217 11.3195 19.6771 11.0428H2.6568C2.5461 11.0428 2.49075 11.0981 2.49075 11.2088C2.49075 11.707 2.6568 12.1221 2.9889 12.4542C3.32101 12.7863 3.73614 12.9524 4.23429 12.9524H6.72507H17.1863C17.5738 12.9524 17.7675 13.16 17.7675 13.5751C17.7675 13.9902 17.5738 14.1978 17.1863 14.1978H5.89481C5.78411 14.1978 5.72876 14.2531 5.72876 14.3638V14.4469C5.72876 14.8897 5.89481 15.291 6.22691 15.6507C6.55901 16.0105 6.97414 16.1904 7.4723 16.1904H9.04979C9.04979 16.1904 9.07746 16.1904 9.13281 16.1904H11.7066C12.0941 16.1904 12.2878 16.398 12.2878 16.8131C12.2878 17.2282 12.0941 17.4358 11.7066 17.4358H9.96307H9.13281C9.02211 17.4358 8.96676 17.4911 8.96676 17.6018C8.96676 17.7679 8.9806 17.9063 9.00828 18.017C9.03595 18.1277 9.07746 18.2522 9.13281 18.3906C9.18817 18.529 9.25735 18.6397 9.34038 18.7227C9.42341 18.8057 9.50643 18.8887 9.58946 18.9718C9.67248 19.0548 9.78318 19.124 9.92156 19.1793C10.0599 19.2347 10.1845 19.2762 10.2952 19.3039C10.4059 19.3315 10.5443 19.3454 10.7103 19.3454H18.0166C18.4594 19.3454 18.6808 19.5529 18.6808 19.9681C18.6808 20.3832 18.4594 20.5908 18.0166 20.5908H10.7103C9.88005 20.5908 9.17433 20.3002 8.59315 19.719C8.01197 19.1378 7.72138 18.4321 7.72138 17.6018C7.72138 17.5465 7.72138 17.4911 7.72138 17.4358H7.4723C6.64204 17.4358 5.93632 17.1452 5.35514 16.564C4.77396 15.9828 4.48337 15.2771 4.48337 14.4469V14.3638C4.48337 14.3085 4.48337 14.2531 4.48337 14.1978H4.23429C3.40403 14.1978 2.69831 13.9072 2.11713 13.326C1.53595 12.7448 1.24536 12.0391 1.24536 11.2088C1.24536 10.8214 1.38374 10.4893 1.66049 10.2125C1.93724 9.93579 2.26935 9.79741 2.6568 9.79741H20.4243C21.0332 9.18855 21.7251 8.88412 22.5 8.88412C23.2749 8.88412 23.9668 9.18855 24.5756 9.79741H42.3431ZM22.7491 41.8454L23.1642 33.6258H21.8358L22.2509 41.8454C22.2509 42.0114 22.3339 42.0945 22.5 42.0945C22.666 42.0945 22.7491 42.0114 22.7491 41.8454ZM23.1642 32.3804L23.3302 28.8103H21.6697L21.8358 32.3804H23.1642ZM23.4133 27.5649L24.1605 11.9561C24.2158 11.4579 24.0775 11.029 23.7454 10.6692C23.4133 10.3094 22.9981 10.1295 22.5 10.1295C22.0018 10.1295 21.5867 10.3094 21.2546 10.6692C20.9225 11.029 20.7841 11.4579 20.8395 11.9561L21.5867 27.5649H23.4133ZM24.2435 7.38966C24.2435 7.38966 24.1051 7.47269 23.8284 7.63874C23.5516 7.80479 23.1088 7.88781 22.5 7.88781C21.8911 7.88781 21.3099 7.72176 20.7564 7.38966C20.2029 7.05756 19.774 6.62859 19.4695 6.10276C19.1651 5.57693 19.0129 4.98191 19.0129 4.3177C19.0129 3.37675 19.3588 2.56033 20.0507 1.86844C20.7426 1.17656 21.559 0.83062 22.5 0.83062C23.4409 0.83062 24.2574 1.17656 24.9492 1.86844C25.6411 2.56033 25.9871 3.37675 25.9871 4.3177C25.9871 4.98191 25.8348 5.57693 25.5304 6.10276C25.226 6.62859 24.797 7.05756 24.2435 7.38966ZM22.5 2.07601C21.8911 2.07601 21.3653 2.29741 20.9225 2.74022C20.4797 3.18302 20.2583 3.72269 20.2583 4.35922C20.2583 4.99575 20.4797 5.53542 20.9225 5.97822C21.3653 6.42102 21.8911 6.64243 22.5 6.64243C23.1088 6.64243 23.6347 6.42102 24.0775 5.97822C24.5203 5.53542 24.7417 4.98191 24.7417 4.3177C24.7417 3.93025 24.6448 3.55663 24.4511 3.19686C24.2574 2.83708 23.9806 2.56033 23.6208 2.3666C23.261 2.17287 22.8874 2.07601 22.5 2.07601ZM26.3192 34.8712C26.2085 34.4838 26.3468 34.2347 26.7343 34.124C27.1217 34.0133 27.3708 34.1517 27.4815 34.5391C27.5922 34.8159 27.6476 35.1203 27.6476 35.4524C27.6476 36.8915 26.9557 37.8325 25.5719 38.2753C25.5166 38.3306 25.4612 38.3583 25.4059 38.3583C25.1291 38.3583 24.9354 38.2199 24.8247 37.9432C24.6586 37.5557 24.7693 37.279 25.1568 37.1129C25.9871 36.8362 26.4022 36.2826 26.4022 35.4524C26.4022 35.231 26.3745 35.0373 26.3192 34.8712ZM16.024 26.9838C16.3007 27.3159 16.3007 27.6203 16.024 27.897C15.9133 28.0077 15.761 28.0631 15.5673 28.0631C15.3736 28.0631 15.2214 28.0077 15.1107 27.897C14.5018 27.2882 14.1974 26.5686 14.1974 25.7384C14.1974 24.9081 14.5018 24.1886 15.1107 23.5797C15.7195 22.9708 16.4391 22.6664 17.2693 22.6664C17.6568 22.6664 17.8505 22.874 17.8505 23.2891C17.8505 23.7042 17.6568 23.9118 17.2693 23.9118C17.0479 23.9118 16.8265 23.9671 16.6051 24.0779C16.3837 24.1886 16.19 24.3131 16.024 24.4515C15.8579 24.5898 15.7195 24.7697 15.6088 24.9911C15.4981 25.2125 15.4428 25.4616 15.4428 25.7384C15.4428 26.2365 15.6365 26.6517 16.024 26.9838Z" fill="#96C6C6"/>
</svg>
