<svg width="16" height="16" viewBox="0 0 16 16" fill="none" xmlns="http://www.w3.org/2000/svg">
<path d="M11.8967 7.4387C11.9754 7.51742 12.0295 7.60598 12.059 7.70438C12.0886 7.80278 12.0886 7.90118 12.059 7.99959C12.0295 8.09799 11.9754 8.18655 11.8967 8.26527L4.9299 15.2321C4.81182 15.3501 4.67406 15.4092 4.51661 15.4092C4.35917 15.4092 4.22141 15.3501 4.10333 15.2321C3.98525 15.114 3.92621 14.9762 3.92621 14.8188C3.92621 14.6613 3.98525 14.5236 4.10333 14.4055L10.6568 7.85198L4.10333 1.26896C3.98525 1.17056 3.92621 1.04264 3.92621 0.885194C3.92621 0.727753 3.98525 0.589992 4.10333 0.47191C4.22141 0.353829 4.35917 0.294788 4.51661 0.294788C4.67406 0.294788 4.81182 0.353829 4.9299 0.47191L11.8967 7.4387Z" fill="#212529"/>
</svg>
