<svg width="16" height="16" viewBox="0 0 16 16" fill="none" xmlns="http://www.w3.org/2000/svg">
<path d="M5.34318 7.85198L11.8967 14.435C12.0148 14.5334 12.0738 14.6613 12.0738 14.8188C12.0738 14.9762 12.0148 15.114 11.8967 15.2321C11.7786 15.3501 11.6408 15.4092 11.4834 15.4092C11.326 15.4092 11.1882 15.3501 11.0701 15.2321L4.10333 8.26527C3.98525 8.14719 3.92621 8.00943 3.92621 7.85198C3.92621 7.69454 3.98525 7.55678 4.10333 7.4387L11.0701 0.47191C11.1882 0.353829 11.326 0.294788 11.4834 0.294788C11.6408 0.294788 11.7786 0.353829 11.8967 0.47191C12.0148 0.589992 12.0738 0.727753 12.0738 0.885194C12.0738 1.04264 12.0148 1.1804 11.8967 1.29848L5.34318 7.85198Z" fill="white"/>
</svg>
