<svg width="38" height="38" viewBox="0 0 38 38" fill="none" xmlns="http://www.w3.org/2000/svg">
<path d="M24.8893 11.9191H28.9557V16.5464H24.8893V20.6128H20.1919V16.5464H16.1254V11.9191H20.1919V7.85264H24.8893V11.9191ZM27.7638 15.4246V13.1109H23.6974V8.97441H21.3837V13.1109H17.3173V15.4246H21.3837V19.491H23.6974V15.4246H27.7638ZM31.9003 29.4467C32.2275 29.7739 32.3911 30.1829 32.3911 30.6737C32.3911 31.1644 32.2275 31.5734 31.9003 31.9006L30.6384 33.0925C28.4883 35.2893 25.8825 36.3877 22.821 36.3877C19.7595 36.3877 17.1537 35.2893 15.0037 33.0925L4.27673 22.4357C2.12667 20.2389 1.05164 17.6214 1.05164 14.5833C1.05164 11.5451 2.12667 8.95104 4.27673 6.80098L5.53872 5.53899C5.8659 5.2118 6.27488 5.04821 6.76566 5.04821C7.25643 5.04821 7.66541 5.2118 7.9926 5.53899L12.5498 10.0962C12.9237 10.7038 13.0756 11.2063 13.0055 11.6036C12.9354 12.0009 12.7835 12.3164 12.5498 12.5501L10.4465 14.5833C10.1193 14.9572 9.9557 15.3779 9.9557 15.8453C9.9557 16.3127 10.1193 16.71 10.4465 17.0371L20.3321 26.9228C20.706 27.2967 21.1267 27.4836 21.5941 27.4836C22.0615 27.4836 22.4588 27.2967 22.786 26.9228L24.8893 24.8895C25.2165 24.5624 25.6254 24.3988 26.1162 24.3988C26.607 24.3988 27.016 24.5624 27.3431 24.8895L31.9003 29.4467ZM6.38005 6.38032L5.11806 7.5722L10.4465 12.9707L11.7085 11.7087C11.9889 11.475 11.9889 11.1946 11.7085 10.8674L7.15127 6.38032C6.91756 6.09987 6.66049 6.09987 6.38005 6.38032ZM22.786 35.1958C25.0762 35.1958 27.1328 34.4947 28.9557 33.0925L23.6273 27.7641C23.0664 28.325 22.3887 28.6054 21.5941 28.6054C20.7995 28.6054 20.0984 28.325 19.4907 27.7641L9.67525 17.8785C9.06763 17.3176 8.76381 16.6398 8.76381 15.8453C8.76381 15.0507 9.06763 14.3729 9.67525 13.812L4.34684 8.48364C2.94462 10.2598 2.24352 12.293 2.24352 14.5833C2.24352 17.341 3.2017 19.678 5.11806 21.5943L15.845 32.3213C17.7614 34.2376 20.075 35.1958 22.786 35.1958ZM31.059 31.0593C31.3395 30.7788 31.3395 30.4984 31.059 30.218L26.5018 25.7309C26.2214 25.4504 25.9643 25.4504 25.7306 25.7309L24.4686 26.9228L29.797 32.3213L31.059 31.0593ZM14.1623 27.3434L13.321 26.5021L14.1623 25.7309L15.0037 26.5021L14.1623 27.3434ZM12.5498 25.7309L11.7085 24.8895L12.5498 24.0482L13.321 24.8895L12.5498 25.7309ZM10.8671 24.0482L10.0258 23.277L10.8671 22.4357L11.7085 23.277L10.8671 24.0482ZM21.2435 0.911682C21.2435 0.911682 22.3302 0.911682 24.5037 0.911682C26.6771 0.911682 29.2946 2.44243 32.3561 5.50393C35.4176 8.56543 36.9483 12.2696 36.9483 16.6165C36.9483 20.9633 35.4292 24.6558 32.3911 27.694L31.5498 26.9228C34.3542 24.0716 35.7564 20.6362 35.7564 16.6165C35.7564 12.5968 34.3425 9.17306 31.5147 6.34526C28.6869 3.51746 25.2632 2.10356 21.2435 2.10356C17.2238 2.10356 13.8118 3.52915 11.0074 6.38032L10.166 5.53899C13.2042 2.45412 16.8967 0.911682 21.2435 0.911682Z" fill="#96C6C6"/>
</svg>
